<svg id="Layer_1-2" data-name="Layer 1-2" xmlns="http://www.w3.org/2000/svg" width="299.3" height="60.143" viewBox="0 0 299.3 60.143">
  <path id="Path_39" data-name="Path 39" d="M2.976,46.291A2.974,2.974,0,0,1,0,43.347V3.094A2.974,2.974,0,1,1,5.94,2.853V43.347a2.974,2.974,0,0,1-2.964,2.943Z" transform="translate(0.005 0)" fill="#fff"/>
  <path id="Path_40" data-name="Path 40" d="M2.985,93.8a2.974,2.974,0,0,1-1.509-5.535L36.365,68.137a2.971,2.971,0,0,1,2.969,5.147h0L4.449,93.411a2.939,2.939,0,0,1-1.464.387Z" transform="translate(-0.004 -33.656)" fill="#fff"/>
  <path id="Path_41" data-name="Path 41" d="M61.518,39.945a2.984,2.984,0,0,1-1.509-.4L25.124,19.441A2.974,2.974,0,1,1,27.937,14.2l.161.091L62.982,34.42a2.974,2.974,0,0,1-1.509,5.535Z" transform="translate(-11.667 -6.862)" fill="#fff"/>
  <path id="Path_42" data-name="Path 42" d="M155.909,63.131a3.019,3.019,0,0,1-3.019-3.019V19.859a3.019,3.019,0,0,1,6.038,0V60.142a3.019,3.019,0,0,1-3.019,2.989Z" transform="translate(-75.959 -8.367)" fill="#fff"/>
  <path id="Path_43" data-name="Path 43" d="M385.809,63.131a3.019,3.019,0,0,1-3.019-3.019V19.859a3.019,3.019,0,0,1,6.038,0V60.142a3.019,3.019,0,0,1-3.019,2.989Z" transform="translate(-190.183 -8.367)" fill="#fff"/>
  <path id="Path_44" data-name="Path 44" d="M527.429,63.145h-.564c-12.106-.307-21.817-10.436-22.1-23.06a24.2,24.2,0,0,1,6.989-17.651,21.988,21.988,0,0,1,16.217-6.541c12.106.307,21.817,10.436,22.1,23.065l-3.019.065,3.019-.065A24.215,24.215,0,0,1,543.083,56.6,22.058,22.058,0,0,1,527.429,63.145Zm0-41.259A16.061,16.061,0,0,0,516,26.686a18.169,18.169,0,0,0-5.228,13.248c.216,9.409,7.351,16.956,16.242,17.183a16,16,0,0,0,11.814-4.79,18.149,18.149,0,0,0,5.223-13.238h0c-.216-9.409-7.346-16.957-16.242-17.183Z" transform="translate(-250.779 -7.893)" fill="#fff"/>
  <path id="Path_45" data-name="Path 45" d="M222.168,63.116a5.164,5.164,0,0,1-4.312-2.692c-.5-.77-8.664-12.237-15.241-21.53l-8.961-12.649V60.128a3.019,3.019,0,1,1-6.038,0V21.022a4.121,4.121,0,0,1,3.94-4.3h.277a5.167,5.167,0,0,1,4.312,2.682c.4.574,5.721,8.076,11.341,16.016l12.886,18.164V19.729a3.019,3.019,0,0,1,6.038,0v39.08a4.136,4.136,0,0,1-3.95,4.307A2.821,2.821,0,0,1,222.168,63.116Z" transform="translate(-93.211 -8.302)" fill="#fff"/>
  <path id="Path_46" data-name="Path 46" d="M304.708,63.131h-14.2a3.019,3.019,0,0,1-3.019-3.019V19.859a3.019,3.019,0,0,1,3.019-3.019h14.2c12.026,0,22.184,10.38,22.184,22.642v.976C326.892,52.756,316.734,63.131,304.708,63.131Zm-11.19-6.038h11.19c8.76,0,16.167-7.623,16.167-16.645v-.956c0-9.022-7.407-16.645-16.167-16.645h-11.19Z" transform="translate(-142.834 -8.367)" fill="#fff"/>
  <path id="Path_47" data-name="Path 47" d="M470.908,80.317a3.019,3.019,0,0,1-3.019-3.019v-8.72h-8.72a3.019,3.019,0,1,1,0-6.038h11.739a3.019,3.019,0,0,1,3.019,3.019V77.308A3.019,3.019,0,0,1,470.908,80.317Z" transform="translate(-226.631 -31.072)" fill="#fff"/>
  <path id="Path_48" data-name="Path 48" d="M437.119,63.107h-3.165c-12.025,0-22.184-10.6-22.184-23.145V38.955c0-12.971,10.627-23.145,24.192-23.145a25.364,25.364,0,0,1,12.473,3.25,3.02,3.02,0,1,1-2.541,5.479,3.17,3.17,0,0,1-.423-.242,19.382,19.382,0,0,0-9.51-2.471c-10.189,0-18.169,7.517-18.169,17.107v1.006c0,9.273,7.4,17.107,16.161,17.107h3.165a3.019,3.019,0,0,1,0,6.038Z" transform="translate(-204.581 -7.855)" fill="#fff"/>
</svg>
